<svg width="16" height="16" viewBox="0 0 16 16" fill="none" xmlns="http://www.w3.org/2000/svg">
<rect width="16" height="16" fill="transparent" style="mix-blend-mode:multiply"/>
<path d="M14.5001 13.793L10.7241 10.0169C11.6314 8.92759 12.0839 7.53039 11.9873 6.11597C11.8908 4.70155 11.2526 3.3788 10.2057 2.4229C9.15867 1.46699 7.78347 0.95153 6.36612 0.983738C4.94877 1.01595 3.5984 1.59335 2.59593 2.59582C1.59345 3.5983 1.01605 4.94867 0.983845 6.36602C0.951637 7.78336 1.4671 9.15857 2.423 10.2055C3.37891 11.2525 4.70165 11.8907 6.11608 11.9872C7.5305 12.0838 8.9277 11.6313 10.017 10.724L13.7931 14.5L14.5001 13.793ZM2.00012 6.50001C2.00012 5.61 2.26404 4.73997 2.75851 3.99995C3.25297 3.25992 3.95578 2.68315 4.77804 2.34255C5.60031 2.00196 6.50511 1.91284 7.37802 2.08648C8.25094 2.26011 9.05276 2.68869 9.6821 3.31803C10.3114 3.94737 10.74 4.74919 10.9137 5.62211C11.0873 6.49502 10.9982 7.39982 10.6576 8.22209C10.317 9.04435 9.7402 9.74716 9.00018 10.2416C8.26016 10.7361 7.39013 11 6.50012 11C5.30705 10.9987 4.16323 10.5242 3.3196 9.68053C2.47597 8.8369 2.00144 7.69308 2.00012 6.50001Z" fill="#2A254B"/>
</svg>
